<svg width="24" height="24" viewBox="0 0 24 24" fill="none" xmlns="http://www.w3.org/2000/svg">
<path d="M6.5 0C5.57174 0 4.6815 0.368749 4.02513 1.02513C3.36875 1.6815 3 2.57174 3 3.5V20.5C3 21.4283 3.36875 22.3185 4.02513 22.9749C4.6815 23.6313 5.57174 24 6.5 24C7.42826 24 8.3185 23.6313 8.97487 22.9749C9.63125 22.3185 10 21.4283 10 20.5V3.5C10 2.57174 9.63125 1.6815 8.97487 1.02513C8.3185 0.368749 7.42826 0 6.5 0Z" fill="black"/>
<path d="M17.5 0C16.5717 0 15.6815 0.368749 15.0251 1.02513C14.3687 1.6815 14 2.57174 14 3.5V20.5C14 21.4283 14.3687 22.3185 15.0251 22.9749C15.6815 23.6313 16.5717 24 17.5 24C18.4282 24 19.3184 23.6313 19.9748 22.9749C20.6312 22.3185 21 21.4283 21 20.5V3.5C21 2.57174 20.6312 1.6815 19.9748 1.02513C19.3184 0.368749 18.4282 0 17.5 0Z" fill="black"/>
</svg>
