<svg width="20" height="24" viewBox="0 0 20 24" fill="none" xmlns="http://www.w3.org/2000/svg">
<path d="M17.492 7.9692L7.954 0.975191C7.209 0.429676 6.32755 0.101103 5.40727 0.0258935C4.48699 -0.0493159 3.56385 0.131776 2.74019 0.549095C1.91653 0.966414 1.22451 1.60366 0.740846 2.3902C0.257176 3.17674 0.000756063 4.08185 6.06331e-06 5.00519V19.0002C-0.00143394 19.9245 0.253646 20.831 0.736856 21.6189C1.22006 22.4068 1.91243 23.0451 2.7369 23.4628C3.56137 23.8806 4.48559 24.0613 5.40668 23.9849C6.32777 23.9085 7.2096 23.5781 7.954 23.0302L17.492 16.0362C18.1249 15.5718 18.6395 14.9648 18.9942 14.2645C19.349 13.5642 19.5338 12.7903 19.5338 12.0052C19.5338 11.2202 19.349 10.4462 18.9942 9.74589C18.6395 9.04559 18.1249 8.43864 17.492 7.9742V7.9692Z" fill="black"/>
</svg>
