<svg width="24" height="14" viewBox="0 0 24 14" fill="none" xmlns="http://www.w3.org/2000/svg">
<path d="M19 0.000488281H5C3.67392 0.000488281 2.40215 0.527268 1.46447 1.46496C0.526784 2.40264 0 3.67441 0 5.00048V9.00048C0 10.3266 0.526784 11.5984 1.46447 12.536C2.40215 13.4737 3.67392 14.0005 5 14.0005H19C19.6566 14.0005 20.3068 13.8712 20.9134 13.6199C21.52 13.3686 22.0712 13.0003 22.5355 12.536C22.9998 12.0718 23.3681 11.5206 23.6194 10.9139C23.8707 10.3073 24 9.65708 24 9.00048V5.00048C24 4.34388 23.8707 3.6937 23.6194 3.08707C23.3681 2.48045 22.9998 1.92925 22.5355 1.46496C22.0712 1.00066 21.52 0.632368 20.9134 0.381088C20.3068 0.129818 19.6566 0.000488281 19 0.000488281ZM22 9.00048C22 9.79618 21.6839 10.5592 21.1213 11.1218C20.5587 11.6844 19.7956 12.0005 19 12.0005H5C4.20435 12.0005 3.44129 11.6844 2.87868 11.1218C2.31607 10.5592 2 9.79618 2 9.00048V5.00048C2 4.20484 2.31607 3.44178 2.87868 2.87917C3.44129 2.31656 4.20435 2.00049 5 2.00049H19C19.7956 2.00049 20.5587 2.31656 21.1213 2.87917C21.6839 3.44178 22 4.20484 22 5.00048V9.00048Z" fill="white"/>
</svg>
