<svg width="24" height="23" viewBox="0 0 24 23" fill="none" xmlns="http://www.w3.org/2000/svg">
<path d="M17.5 0.916504C16.3739 0.934024 15.2724 1.24836 14.3067 1.82778C13.341 2.40719 12.5453 3.23117 12 4.2165C11.4546 3.23117 10.6589 2.40719 9.6932 1.82778C8.7275 1.24836 7.62601 0.934024 6.49996 0.916504C4.7049 0.994494 3.01366 1.77976 1.79574 3.10074C0.577818 4.42171 -0.0677922 6.17103 -4.17163e-05 7.9665C-4.17163e-05 12.5135 4.78596 17.4795 8.79996 20.8465C9.69618 21.5996 10.8293 22.0125 12 22.0125C13.1706 22.0125 14.3037 21.5996 15.2 20.8465C19.214 17.4795 24 12.5135 24 7.9665C24.0677 6.17103 23.4221 4.42171 22.2042 3.10074C20.9863 1.77976 19.295 0.994494 17.5 0.916504ZM13.915 19.3165C13.3789 19.7679 12.7007 20.0154 12 20.0154C11.2992 20.0154 10.621 19.7679 10.085 19.3165C4.94696 15.0055 1.99996 10.8695 1.99996 7.9665C1.9316 6.70122 2.36632 5.46023 3.20932 4.5142C4.05232 3.56817 5.23519 2.99385 6.49996 2.9165C7.76472 2.99385 8.9476 3.56817 9.7906 4.5142C10.6336 5.46023 11.0683 6.70122 11 7.9665C11 8.23172 11.1053 8.48607 11.2929 8.67361C11.4804 8.86115 11.7347 8.9665 12 8.9665C12.2652 8.9665 12.5195 8.86115 12.7071 8.67361C12.8946 8.48607 13 8.23172 13 7.9665C12.9316 6.70122 13.3663 5.46023 14.2093 4.5142C15.0523 3.56817 16.2352 2.99385 17.5 2.9165C18.7647 2.99385 19.9476 3.56817 20.7906 4.5142C21.6336 5.46023 22.0683 6.70122 22 7.9665C22 10.8695 19.053 15.0055 13.915 19.3125V19.3165Z" fill="white"/>
</svg>
