<svg width="24" height="24" viewBox="0 0 24 24" fill="none" xmlns="http://www.w3.org/2000/svg">
<g clip-path="url(#clip0_16_4202)">
<path d="M18.7572 16.0002C18.0685 15.9986 17.3864 16.1334 16.7501 16.3968C16.1139 16.6603 15.5361 17.0472 15.0502 17.5352C13.6382 18.9552 11.9586 20.0811 10.1085 20.8475C8.2585 21.6139 6.27477 22.0057 4.27224 22.0002H3.12224C2.90034 22.0005 2.68334 21.935 2.49872 21.8119C2.31409 21.6888 2.17015 21.5137 2.08513 21.3087C2.0001 21.1038 1.97782 20.8782 2.0211 20.6605C2.06437 20.4429 2.17127 20.243 2.32824 20.0862L3.02124 19.3932C4.94406 19.2941 6.76155 18.4844 8.12124 17.1212L12.4472 12.8002C12.8693 12.9136 13.3025 12.9807 13.7392 13.0002C13.8252 13.0002 13.9122 13.0002 14.0002 13.0002C15.5924 12.9989 17.1191 12.3668 18.2462 11.2422L19.2462 10.2422C19.8334 9.65396 20.2921 8.95034 20.5935 8.17578C20.8949 7.40123 21.0323 6.57258 20.9972 5.7422C20.9638 4.90816 20.7552 4.0905 20.385 3.3424C20.0147 2.59431 19.4911 1.93256 18.8482 1.4002C17.6471 0.448865 16.1353 -0.0222622 14.6064 0.078262C13.0775 0.178786 11.6404 0.843791 10.5742 1.9442L9.94124 2.5782C9.1762 3.34049 8.61892 4.28584 8.32241 5.32433C8.0259 6.36281 8.00002 7.45989 8.24724 8.5112L3.87924 12.8792C2.51531 14.2384 1.70551 16.0562 1.60724 17.9792L0.914241 18.6722C0.477653 19.1087 0.180347 19.6649 0.0599349 20.2705C-0.0604776 20.876 0.00141336 21.5037 0.237778 22.074C0.474143 22.6444 0.874361 23.1318 1.3878 23.4747C1.90124 23.8176 2.50484 24.0004 3.12224 24.0002H4.27224C6.5374 24.0063 8.7813 23.5632 10.874 22.6963C12.9668 21.8295 14.8668 20.5562 16.4642 18.9502C16.9177 18.4968 17.4954 18.188 18.1244 18.0628C18.7533 17.9377 19.4052 18.0018 19.9977 18.2471C20.5902 18.4924 21.0967 18.9079 21.4531 19.441C21.8096 19.9741 21.9999 20.6009 22.0002 21.2422V23.0002C22.0002 23.2654 22.1056 23.5198 22.2931 23.7073C22.4806 23.8948 22.735 24.0002 23.0002 24.0002C23.2654 24.0002 23.5198 23.8948 23.7073 23.7073C23.8948 23.5198 24.0002 23.2654 24.0002 23.0002V21.2422C23.9983 19.8523 23.4453 18.5199 22.4624 17.5372C21.4796 16.5545 20.1471 16.0018 18.7572 16.0002ZM11.3572 3.9882L11.9902 3.3542C12.8116 2.52886 13.9258 2.06159 15.0902 2.0542C15.9916 2.04541 16.867 2.35611 17.5612 2.9312C17.9907 3.28585 18.3407 3.72687 18.5886 4.22563C18.8366 4.72439 18.9768 5.26972 19.0002 5.8262C19.0233 6.37972 18.9315 6.93203 18.7307 7.44834C18.5298 7.96465 18.2243 8.43379 17.8332 8.8262L16.8332 9.8262C16.4403 10.2191 15.9699 10.5258 15.4519 10.7269C14.9338 10.9279 14.3796 11.0188 13.8246 10.9937C13.2695 10.9687 12.7257 10.8283 12.2279 10.5815C11.7301 10.3347 11.2891 9.98687 10.9332 9.5602C10.3012 8.74399 9.99458 7.72235 10.0725 6.69303C10.1505 5.66371 10.6075 4.69991 11.3552 3.9882H11.3572ZM5.29324 14.2932L9.12924 10.4562C9.22024 10.5862 9.29324 10.7262 9.39624 10.8492C9.72817 11.2413 10.1081 11.59 10.5272 11.8872L6.70724 15.7072C5.88507 16.5319 4.83327 17.0895 3.68924 17.3072C3.90874 16.1641 4.46773 15.1137 5.29324 14.2932Z" fill="white"/>
</g>
<defs>
<clipPath id="clip0_16_4202">
<rect width="24" height="24" fill="white"/>
</clipPath>
</defs>
</svg>
