<svg width="8" height="14" viewBox="0 0 8 14" fill="none" xmlns="http://www.w3.org/2000/svg">
<path d="M0 12.8789V1.70694C4e-05 1.50919 0.0587101 1.31589 0.1686 1.15148C0.27848 0.98707 0.43465 0.858929 0.61734 0.783259C0.80004 0.707589 1.0011 0.687789 1.195 0.726359C1.389 0.764919 1.5671 0.860129 1.707 0.999939L7.293 6.5859C7.4805 6.7735 7.5858 7.0278 7.5858 7.2929C7.5858 7.5581 7.4805 7.8124 7.293 7.9999L1.707 13.5859C1.5671 13.7257 1.389 13.821 1.195 13.8595C1.0011 13.8981 0.80004 13.8783 0.61734 13.8026C0.43465 13.7269 0.27848 13.5988 0.1686 13.4344C0.0587101 13.27 4e-05 13.0767 0 12.8789Z" fill="white"/>
</svg>
