<svg width="8" height="14" viewBox="0 0 8 14" fill="none" xmlns="http://www.w3.org/2000/svg">
<path d="M6.293 13.5859L0.706971 7.9999C0.519501 7.8124 0.414181 7.5581 0.414181 7.2929C0.414181 7.0278 0.519501 6.7735 0.706971 6.5859L6.293 0.999939C6.4328 0.860129 6.611 0.764919 6.8049 0.726359C6.9989 0.687789 7.1999 0.707589 7.3826 0.783259C7.5653 0.858929 7.7215 0.98707 7.8314 1.15148C7.9413 1.31589 7.9999 1.50919 8 1.70694V12.8789C7.9999 13.0767 7.9413 13.27 7.8314 13.4344C7.7215 13.5988 7.5653 13.7269 7.3826 13.8026C7.1999 13.8783 6.9989 13.8981 6.8049 13.8595C6.611 13.821 6.4328 13.7257 6.293 13.5859Z" fill="white"/>
</svg>
