<svg width="24" height="24" viewBox="0 0 24 24" fill="none" xmlns="http://www.w3.org/2000/svg">
<path d="M22.4846 10.9756L11.9996 17.2676L1.51451 10.9756C1.28709 10.8391 1.01477 10.7986 0.757474 10.8629C0.500174 10.9272 0.278965 11.0912 0.142511 11.3186C0.00605741 11.546 -0.0344642 11.8183 0.0298608 12.0756C0.0941858 12.3329 0.258088 12.5541 0.485511 12.6906L11.4856 19.2906C11.6411 19.384 11.8191 19.4334 12.0006 19.4334C12.182 19.4334 12.36 19.384 12.5156 19.2906L23.5156 12.6906C23.743 12.5541 23.9069 12.3329 23.9712 12.0756C24.0355 11.8183 23.995 11.546 23.8586 11.3186C23.7221 11.0912 23.5009 10.9272 23.2436 10.8629C22.9863 10.7986 22.714 10.8391 22.4866 10.9756H22.4846Z" fill="white"/>
<path d="M22.4845 15.5429L11.9995 21.8339L1.51451 15.5429C1.4019 15.4753 1.27709 15.4306 1.1472 15.4113C1.0173 15.3919 0.884873 15.3984 0.757471 15.4302C0.630069 15.4621 0.510188 15.5187 0.404672 15.5969C0.299157 15.6751 0.210073 15.7733 0.142508 15.8859C0.0749432 15.9985 0.0302196 16.1233 0.010891 16.2532C-0.00843767 16.3831 -0.00199274 16.5155 0.0298578 16.6429C0.0941828 16.9002 0.258085 17.1214 0.485508 17.2579L11.4855 23.8579C11.641 23.9514 11.8191 24.0007 12.0005 24.0007C12.182 24.0007 12.36 23.9514 12.5155 23.8579L23.5155 17.2579C23.7429 17.1214 23.9068 16.9002 23.9712 16.6429C24.0355 16.3856 23.995 16.1133 23.8585 15.8859C23.7221 15.6585 23.5009 15.4946 23.2436 15.4302C22.9863 15.3659 22.7139 15.4064 22.4865 15.5429H22.4845Z" fill="white"/>
<path d="M11.9997 14.7735C11.4603 14.7732 10.9311 14.6263 10.4687 14.3485L0.484683 8.35754C0.336831 8.26864 0.214494 8.143 0.129564 7.99283C0.0446342 7.84265 0 7.67307 0 7.50054C0 7.32802 0.0446342 7.15843 0.129564 7.00826C0.214494 6.85809 0.336831 6.73245 0.484683 6.64354L10.4687 0.652544C10.9311 0.374773 11.4603 0.228027 11.9997 0.228027C12.5391 0.228027 13.0683 0.374773 13.5307 0.652544L23.5147 6.64354C23.6626 6.73245 23.7849 6.85809 23.8698 7.00826C23.9548 7.15843 23.9994 7.32802 23.9994 7.50054C23.9994 7.67307 23.9548 7.84265 23.8698 7.99283C23.7849 8.143 23.6626 8.26864 23.5147 8.35754L13.5307 14.3485C13.0683 14.6263 12.5391 14.7732 11.9997 14.7735ZM2.94368 7.50054L11.4997 12.6335C11.6508 12.7239 11.8236 12.7717 11.9997 12.7717C12.1758 12.7717 12.3486 12.7239 12.4997 12.6335L21.0557 7.50054L12.4997 2.36754C12.3486 2.27715 12.1758 2.22941 11.9997 2.22941C11.8236 2.22941 11.6508 2.27715 11.4997 2.36754L2.94368 7.50054Z" fill="white"/>
</svg>
