<svg width="9" height="16" viewBox="0 0 9 16" fill="none" xmlns="http://www.w3.org/2000/svg">
<path d="M3.95666 8.35412C3.91016 8.30772 3.87316 8.25252 3.84796 8.19172C3.82276 8.13102 3.80976 8.06592 3.80976 8.00012C3.80976 7.93432 3.82276 7.86922 3.84796 7.80852C3.87316 7.74772 3.91016 7.69262 3.95666 7.64612L8.54266 3.06112C8.82406 2.77986 8.98216 2.39834 8.98226 2.00048C8.98236 1.60262 8.82446 1.22102 8.54316 0.93962C8.26186 0.65823 7.88036 0.50009 7.48256 0.5C7.08466 0.4999 6.70306 0.65786 6.42166 0.93912L1.83568 5.52512C1.18045 6.18212 0.8125 7.07222 0.8125 8.00012C0.8125 8.92802 1.18045 9.81812 1.83568 10.4751L6.42166 15.0611C6.70306 15.3424 7.08466 15.5003 7.48256 15.5002C7.88036 15.5001 8.26186 15.342 8.54316 15.0606C8.82446 14.7792 8.98236 14.3976 8.98226 13.9998C8.98216 13.6019 8.82406 13.2204 8.54266 12.9391L3.95666 8.35412Z" fill="white"/>
</svg>
