<svg width="14" height="8" viewBox="0 0 14 8" fill="none" xmlns="http://www.w3.org/2000/svg">
<path d="M1.41385 0H12.5859C12.7836 4e-05 12.9769 0.0587101 13.1414 0.1686C13.3058 0.27848 13.4339 0.43465 13.5096 0.61734C13.5852 0.80004 13.605 1.0011 13.5665 1.195C13.5279 1.389 13.4327 1.5671 13.2929 1.707L7.70686 7.293C7.51936 7.4805 7.26506 7.5858 6.99986 7.5858C6.73466 7.5858 6.48036 7.4805 6.29286 7.293L0.706846 1.707C0.567036 1.5671 0.471836 1.389 0.433266 1.195C0.394696 1.0011 0.414506 0.80004 0.490176 0.61734C0.565846 0.43465 0.693986 0.27848 0.858396 0.1686C1.02281 0.0587101 1.2161 4e-05 1.41385 0Z" fill="white"/>
</svg>
