<svg width="9" height="16" viewBox="0 0 9 16" fill="none" xmlns="http://www.w3.org/2000/svg">
<path d="M7.7501 5.52512L3.16409 0.93912C2.88279 0.65786 2.5012 0.4999 2.1033 0.5C1.70544 0.50009 1.32391 0.65823 1.04265 0.93962C0.761385 1.22102 0.603426 1.60262 0.603516 2.00048C0.603616 2.39834 0.761755 2.77986 1.04315 3.06112L5.6291 7.64612C5.6757 7.69262 5.7126 7.74772 5.7379 7.80852C5.7631 7.86922 5.776 7.93432 5.776 8.00012C5.776 8.06592 5.7631 8.13102 5.7379 8.19172C5.7126 8.25252 5.6757 8.30772 5.6291 8.35412L1.04315 12.9391C0.761755 13.2204 0.603616 13.6019 0.603516 13.9998C0.603426 14.3976 0.761385 14.7792 1.04265 15.0606C1.32391 15.342 1.70544 15.5001 2.1033 15.5002C2.5012 15.5003 2.88279 15.3424 3.16409 15.0611L7.7501 10.4751C8.4054 9.81812 8.77329 8.92802 8.77329 8.00012C8.77329 7.07222 8.4054 6.18212 7.7501 5.52512Z" fill="white"/>
</svg>
